P3
#truc.ppm
4 4
15
0 0 0  0 0 0  0 0 0  10 0 0
0 0 0  0 9 7  0 0 0  0 0 0
0 0 0  0 0 0  0 11 7  0 0 0
15 15 0  0 0 0  0 0 0  0 0 0
